<?xml version="1.0" encoding="UTF-8"?>
<svg width="375px" height="365px" viewBox="0 0 375 365" version="1.1" xmlns="http://www.w3.org/2000/svg" xmlns:xlink="http://www.w3.org/1999/xlink">
    <!-- Generator: Sketch 52.5 (67469) - http://www.bohemiancoding.com/sketch -->
    <title>waves_group</title>
    <desc>Created with Sketch.</desc>
    <defs>
        <linearGradient x1="21.082433%" y1="13.0127224%" x2="81.2313706%" y2="14.5003831%" id="linearGradient-1">
            <stop stop-color="#C06CD7" offset="0%"></stop>
            <stop stop-color="#5B39B7" offset="100%"></stop>
        </linearGradient>
        <linearGradient x1="21.082433%" y1="13.0127224%" x2="82.9286408%" y2="14.5423616%" id="linearGradient-2">
            <stop stop-color="#3023AE" offset="0%"></stop>
            <stop stop-color="#C86DD7" offset="100%"></stop>
        </linearGradient>
        <linearGradient x1="2.68742023%" y1="2.661073%" x2="101.999998%" y2="100.999999%" id="linearGradient-3">
            <stop stop-color="#120D45" offset="0%"></stop>
            <stop stop-color="#B46DD7" offset="100%"></stop>
        </linearGradient>
    </defs>
    <g id="Page-1" stroke="none" stroke-width="1" fill="none" fill-rule="evenodd">
        <g id="Music_player" transform="translate(0.000000, -302.000000)">
            <g id="Waves_overlay" transform="translate(-99.000000, 301.000000)">
                <g id="waves_group">
                    <path d="M6.359375,26.6651578 C6.359375,26.6651578 47.2460938,4.23919752 77.7382813,36.4012901 C108.230469,68.5633826 160.794255,52.7555777 173.751286,31.1912517 C186.708318,9.62692567 224.086419,-3.26201713 256.062982,18.7616236 C288.039544,40.7852644 309.152344,57.6102338 338.441406,44.0051289 C367.730469,30.400024 370.902344,13.7929687 410.222656,13.7929687 C449.542969,13.7929687 472.28125,57.7159671 472.28125,67.296875 C472.28125,76.8777829 473.28125,466.293911 473.28125,466.293911 L0.137798129,466.293911 L0.137798129,31.1912517 L6.359375,26.6651578 Z" id="Yellow" fill="url(#linearGradient-1)" opacity="0.742980072"></path>
                    <path d="M130.221577,33.6054104 C130.221577,33.6054104 171.108296,11.1794501 201.600483,43.3415427 C232.092671,75.5036352 250.213764,54.5427885 263.170796,32.9784625 C276.127827,11.4141365 300.057514,-12.2288403 332.034077,9.79480046 C364.010639,31.8184412 384.014546,64.5504864 413.303608,50.9453815 C442.592671,37.3402766 429.518452,18.6190085 468.838764,18.6190085 C508.159077,18.6190085 510.711025,58.8931957 510.711025,68.4741036 L510.711025,473.234164 L124,473.234164 L124,38.1315043 L130.221577,33.6054104 Z" id="Blue" fill="url(#linearGradient-2)" opacity="0.6"></path>
                    <path d="M64.2215769,35.2286737 C64.2215769,35.2286737 105.108296,12.885518 135.600483,44.9288568 C166.092671,76.9721956 172.703411,73.7823098 185.660442,52.2976069 C198.617473,30.8129039 218.085515,32.7387917 237.151921,43.6949214 C256.218328,54.651051 270.014546,66.0594897 299.303608,52.5046196 C328.592671,38.9497495 322.015811,20.2976069 361.336124,20.2976069 C400.656436,20.2976069 444.711025,60.4230877 444.711025,69.9686195 L444.711025,473.234164 L58,473.234164 L58,39.7380557 L64.2215769,35.2286737 Z" id="Red" fill="url(#linearGradient-2)" opacity="0.6"></path>
                    <path d="M99.359375,29.2489826 C99.359375,29.2489826 140.246094,12.0559393 170.738281,36.7132669 C201.230469,61.3705945 214.257812,53.2457313 227.214844,36.7132669 C240.171875,20.1808025 264.984375,5.29591207 296.960937,22.1805139 C328.9375,39.0651156 348.625,53.2688183 377.914062,42.8383549 C407.203125,32.4078916 412.771308,16.6005081 444.112131,16.6005081 C475.452955,16.6005081 484.046875,50.7154299 484.046875,58.0607102 C484.046875,65.4059904 479.848824,366.293911 479.848824,366.293911 L93.1377981,366.293911 L93.1377981,32.7189489 L99.359375,29.2489826 Z" id="Top" fill="url(#linearGradient-3)"></path>
                </g>
            </g>
        </g>
    </g>
</svg>