<?xml version="1.0" encoding="UTF-8"?>
<svg width="18px" height="18px" viewBox="0 0 18 18" version="1.1" xmlns="http://www.w3.org/2000/svg" xmlns:xlink="http://www.w3.org/1999/xlink">
    <!-- Generator: Sketch 52.5 (67469) - http://www.bohemiancoding.com/sketch -->
    <title>Shape</title>
    <desc>Created with Sketch.</desc>
    <g id="Page-1" stroke="none" stroke-width="1" fill="none" fill-rule="evenodd">
        <g id="Music_player" transform="translate(-336.000000, -622.000000)" fill="#FFFFFF">
            <g id="Main_UI" transform="translate(20.000000, 407.000000)">
                <g id="Play_buttons" transform="translate(0.000000, 145.000000)">
                    <g id="Bottom_buttons" transform="translate(0.000000, 70.000000)">
                        <path d="M332,16 L318,16 L318,2 L325,2 L325,0 L318,0 C316.9,0 316,0.9 316,2 L316,16 C316,17.1 316.9,18 318,18 L332,18 C333.1,18 334,17.1 334,16 L334,9 L332,9 L332,16 L332,16 Z M327,0 L327,2 L330.6,2 L320.8,11.8 L322.2,13.2 L332,3.4 L332,7 L334,7 L334,0 L327,0 L327,0 Z" id="Shape"></path>
                    </g>
                </g>
            </g>
        </g>
    </g>
</svg>